<svg xmlns="http://www.w3.org/2000/svg" viewBox="0 0 500 500"><g id="freepik--background-simple--inject-2"><path d="M287.85,13.34S205,.11,136.92,58.23,46.5,210.8,26.42,286.86,38.54,430.55,102.78,452.2s94.95-33.51,176.2-51,105.37-9.86,164.59-68.56S494.85,162.73,426.44,92,287.85,13.34,287.85,13.34Z" style="fill:#263238"></path><path d="M287.85,13.34S205,.11,136.92,58.23,46.5,210.8,26.42,286.86,38.54,430.55,102.78,452.2s94.95-33.51,176.2-51,105.37-9.86,164.59-68.56S494.85,162.73,426.44,92,287.85,13.34,287.85,13.34Z" style="fill:#fff;opacity:0.7000000000000001"></path></g><g id="freepik--Painting--inject-2"><rect x="64.45" y="38.89" width="12.65" height="434.11" style="fill:#fff;stroke:#263238;stroke-linecap:round;stroke-linejoin:round"></rect><rect x="295.61" y="38.89" width="12.65" height="434.11" style="fill:#fff;stroke:#263238;stroke-linecap:round;stroke-linejoin:round"></rect><rect x="64.45" y="91.37" width="12.65" height="293.49" style="fill:#263238;stroke:#263238;stroke-linecap:round;stroke-linejoin:round"></rect><rect x="295.61" y="91.37" width="12.65" height="293.49" style="fill:#263238;stroke:#263238;stroke-linecap:round;stroke-linejoin:round"></rect><rect x="45.12" y="66.57" width="285.52" height="294.29" style="fill:#c4c4c4"></rect><path d="M275.54,84.89S264.52,74.71,245,79s-21.2,22.9-21.2,22.9-26.29-10.18-43.25-.85-17.8,31.37-17.8,31.37l28.66,228.49H330.64V66.57h-35A55.42,55.42,0,0,0,275.54,84.89Z" style="fill:#dbdbdb"></path><path d="M330.64,221.41a23.48,23.48,0,0,0-10.15-.85c-13.57,1.69-22.05,15.26-22.05,15.26s.52-33.5-8.48-44.94-38.16-2.54-38.16-2.54,7.63-17,0-24.59-24.59,10.17-24.59,10.17,5.94-33.07-24.59-50-44.09,9.33-44.09,9.33S156,112.87,145,112.87s-16.11,11-16.11,11-29.68-28.83-56-14.41c-13.22,7.25-22.15,18.36-27.76,27.62V360.86H330.64Z" style="fill:#f2f2f2"></path><path d="M244.58,322s11.85,16.67,11.85,38.61H218.69Z" style="fill:#6b6b6b"></path><path d="M251.16,250.51l38.18,7.9s8.77-28.52,8.77-37.3.44-13.16.44-13.16,7.9.88,13.6-.88,7-2.63,7-2.63,8.34,38.17,7.9,55.29S317,295.71,312.59,297s-35.54,0-35.54,0-2.63,18-5.7,19.31-21.07-.88-21.07-.88l-19.74,43-1.76,1.76H114.26l29-101.8s13.16-11.41,21.5-16.67,24.13-7.9,33.35-5.71,36.86,11,39.05,11.85Z" style="fill:#b5b5b5"></path><path d="M253.36,281.23a31.4,31.4,0,0,0-4,9.65c-.88,4.83-8.78,7.46-15.8-6.58s-7.9-16.67-7.9-9.21,3.95,19.74,7,23.25-2.63,4.83-7.9-2.63-10.53-6.58-8.33-.44S220,310.63,227,311.94s8.34,2.64,8.34,2.64-6.59,4.82-11.41,2.19-8.78-11.85-11.41-19.75-3.51,7.9-1.32,16.68,10.53,20.18,5.27,21.06-17.55-10.53-18-6.14,6.58,9.65,6.58,13.6-4.83,11-10.53,5.7-12.29-18-15.8-29S170,290.88,166,283s-18.43-16.23-18.43-16.23-7.9,17.55-10.09,26.33-14.92,67.57-14.92,67.57H233.42l16.86-45.2,11.85.44Z" style="fill:#8f8f8f"></path><path d="M312.59,297c4.39-1.31,14-20.18,14.48-37.29s-7.9-55.29-7.9-55.29-1.31.88-7,2.63-13.6.88-13.6.88-.44,4.39-.44,13.16-8.77,37.3-8.77,37.3l-23.09-4.78c-3,8.84-7.63,23.54-7.63,29.79,0,9.22,1.76,12.29,1.76,12.29L277.05,297S308.2,298.34,312.59,297Z" style="fill:#696969"></path><polygon points="155.07 333.44 155.51 360.65 175.69 360.65 175.69 333 164.28 328.62 155.07 333.44" style="fill:#6e6e6e"></polygon><polygon points="175.69 333 164.28 328.62 155.07 333.44 155.34 350.56 175.69 350.56 175.69 333" style="fill:#bfbfbf"></polygon><polygon points="134.44 340.03 143.22 336.51 155.94 336.51 166.04 344.85 172.18 336.95 185.78 335.64 194.12 341.34 192.8 322.47 185.34 326.42 172.62 326.42 168.67 318.52 162.53 317.21 155.07 326.42 133.57 323.79 131.37 333 134.44 340.03" style="fill:#6e6e6e"></polygon><path d="M144.54,307.12l11.84-14.92s9.22-3.51,12.73-2.2,6.58,13.61,6.58,13.61,6.14,4.82,4.83,7.89-3.51,13.61-5.71,13.61-6.58-1.76-8.33-1.76-7,5.71-8.34,5.71-17.55.43-17.55.43l-5.27-2.63L134.44,340l-6.14,3.51s3.95-28.53,4.83-30.28,7.46-3.95,7.46-3.95Z" style="fill:#dbdbdb"></path><path d="M166.48,240s-13.61-2.19-18.87,1.32-3.51,5.26-10.09,7-15.8,3.51-21.5,10.53-7,9.65-7,9.65-4.82-.44-6.58,3.51a48.44,48.44,0,0,1-3.51,6.59s-15.79,14.48-18,14.91-7,3.51-9.21,6.15-3.51,4.82-5.27,5.26-7,7.9-11.85,11.85-11.4,13.6-7,22.38,5.27,11,5.27,11v10.09h71.52s9.66-43.44,10.53-44.76,4.83-.87,6.58-2.63,3.08-5.7,3.08-5.7l-3.08-3.95s8.34-35.11,11-40.81S166.48,240,166.48,240Z" style="fill:#c9c9c9"></path><path d="M161.65,228.57s4.39,8.78,3.07,13.17-11.85,12.28-8.34,18,21.94,11.41,33.79,9.21,16.67-13.16,16.67-14.92-2.63-21.5-7.89-31.15-11-11.85-20.63-8.78S162.09,223.31,161.65,228.57Z" style="fill:#dbdbdb"></path><path d="M148.49,180.31s-3.08,4.82-.88,6.14a10.87,10.87,0,0,1,3.51,4.39s-7,12.28-6.58,13.6a8.27,8.27,0,0,0,1.75,2.63s-2.19,4.39-1.31,6.15,3.51,6.14,3.51,6.14-5.71,5.26-2.2,9.21,14.48,2.64,14.48,2.64,19.31-1.32,24.13-6.15.44-16.67-5.7-29.4-20.18-21.5-24.13-20.18A15.44,15.44,0,0,0,148.49,180.31Z" style="fill:#dbdbdb"></path><path d="M153.31,168.46s10.09-15.36,23.26-17.11,20.18,0,24.13,0,10.09-2.64,10.09-2.64.88,11.85,2.64,14,5.7,18.42,4.38,25.44a67.18,67.18,0,0,1-3.51,12.29S185.34,171.53,153.31,168.46Z" style="fill:#8f8f8f"></path><path d="M214.3,200.49l-.38,1.67-2.25,9.74s-22.38-22.38-40.37-29.4-24.13-4.39-24.13-4.39l6.14-9.65S183.15,167.58,214.3,200.49Z" style="fill:#a3a3a3"></path><path d="M161.21,180.75s-7,3.51-12.29,3.51-9.65-12.73,1.76-14.92,26.77,6.14,30.71,14,14.48,15.36,17.56,17.11,12.72,11.41,12.72,11.41A25.15,25.15,0,0,0,223.52,222c8.34,3.51,11,0,19.3,7.9s8.34,20.62,8.34,20.62-14.48-.44-20.62,4.39-8.78,11.41-14.92,11.41-10.09-6.14-10.09-6.14a14.42,14.42,0,0,0,7,9.65A25.32,25.32,0,0,0,224,273.33s-2.2,4.39-12.73,0-14-14.48-18-18.87-4-11-2.63-16.23,3.07-8.34-4.39-15.36S181,206.2,181,206.2a19.28,19.28,0,0,1-10.1-9.22c-3.51-7-4.38-11-5.7-12.29Z" style="fill:#696969"></path><path d="M188.85,192.59a16.31,16.31,0,0,0,3.08,7c2.63,3.51,6.14,7.46,6.14,7.46l-13.17-3.95s-1.75,12.73,3.52,16.68,32,10.09,35.1,8.77-10.09-15.35-11.85-16.67S195.87,193.47,188.85,192.59Z" style="fill:#8f8f8f"></path><path d="M176.57,204.44c2.63,7.46-1.32,9.21-4.83,10.53s-5.7,4.39-9.65,3.07-5.71-6.58-7.9-8.77-7.9-2.2-7.9-2.2-2.19,4.39-1.31,6.15,3.51,6.14,3.51,6.14-5.71,5.26-2.2,9.21,14.48,2.64,14.48,2.64,19.31-1.32,24.13-6.15c4.5-4.49,1-15.07-4.46-26.78C177.5,198.26,175.08,200.24,176.57,204.44Z" style="fill:#696969"></path><circle cx="163.62" cy="280.57" r="9.43" transform="translate(-146.94 375.65) rotate(-76.77)" style="fill:#6e6e6e"></circle><path d="M268.27,254.9s-6.14,18.43-4.38,37.3,7.46,24.13,7.46,24.13h-11s-9.66-10.09-9.22-32,7-32,7-32Z" style="fill:#a3a3a3"></path><path d="M330.12,69.64c-4.82,3.54-2.89,10.28-2.89,10.28L309.88,86l-6.1-1.93.64-9-6.74,4.18-3.86-2.57.62-10.6h-9.21l-.72,16.7L279,87.31,272,87l1.6,5.46-2.25,7.71L255,105.3a9.37,9.37,0,0,0-2.89-6.42c-2.89-2.57-8,2.57-8.35,4.81a28,28,0,0,0-.32,3.54,7.3,7.3,0,0,0-7.07,5.14c-1.93,5.46,1.28,7.39,2.57,8a7.44,7.44,0,0,0,2.89.64s3.53,4.82,9,2.89,4.5-8,4.5-8L271,111.4l-1,9.32,7.71-3.21,3.53,3.53-.64,21.52s-7.39,2.25-7.71,7.07,4.82,7.39,4.82,7.39l1.93.64-1.61,35a4.12,4.12,0,0,0-1,3.85l.64,2.25s-3.53,3.54-2.57,5.14,3.53.64,3.53.64-1.92,1.61-1,3.22l1,1.6-8.35,151.31h10l8.67-151s1.93-2.24,1.93-3.21-1.28-1.93-1.28-1.93,4.17,0,4.17-1.6-2.89-3.86-2.89-3.86v-3.53s4.5-30.84,4.5-35.34-1.93-5.46-1.93-5.46,7.71-4.17,6.75-10-8.36-5.14-8.36-5.14l.65-20.88,4.49-6.42,11.25,2.25-4.5-10.28,5.14-7.07,17-5.46A18.64,18.64,0,0,0,330.12,96Z" style="fill:#8f8f8f"></path><path d="M275.51,176.62c.32,1.6,0,13.49,1.29,15.1s8.35-5.14,8.35-5.14,5.14,8.35,7.39,11.24,6.42,4.5,6.42,4.5V208c1.68.15,8.25.6,13.19-.92a42.83,42.83,0,0,0,6.75-2.48,106.55,106.55,0,0,0-3.23-11c-1.93-5.14-15.42-27.3-17-29.87s-10.6-7.07-12.53-7.71-4.17,1-5.14,2.25-4.82,8.35-4.17,9.31a9.25,9.25,0,0,1,1,1.93S275.19,175,275.51,176.62Z" style="fill:#dbdbdb"></path><path d="M293.79,179c-1.91,2.54-3.18,3.18-3.18,5.09s-1.91,1.9,6.35,6.35S308.4,200,308.4,202.55c0,1.22-1,3.46-1.38,5.46a25.4,25.4,0,0,0,5.13-.94,42.83,42.83,0,0,0,6.75-2.48,106.55,106.55,0,0,0-3.23-11c-1.93-5.14-15.42-27.3-17-29.87,0,0-3.58,7-4.22,9.55S295.69,176.5,293.79,179Z" style="fill:#bfbfbf"></path><path d="M141.38,245.93s-.43.47-1.14,1.38a53.39,53.39,0,0,0-7.77,14.58c-3.71,10.39-4.45,20-5.19,24.49s-.74,18.56-.74,18.56-.75,3.71-4.09-5.57-3.71-21.89-3.71-21.89-5.56,16.33-5.19,20.41,1.11,10,1.11,10-3.71-20.79-4.08-26.35.74-14.48-.74-10.76a39.79,39.79,0,0,0-2.6,18.55c.74,8.54,4.82,20,4.82,20s-6.68-8.9-11.13-11.5-13-3.34-13-3.34l8.91,5.56s-3.72-.74-11.14,2.23S69.38,309,67.16,310.88,59,319.41,59,319.41s17.82-12.24,23.38-13.73,17.44,2.6,17.44,2.6-11.13,1.85-13.36,4.45S77.18,325,77.18,325s10.76-8.91,16.33-10.39A57.1,57.1,0,0,1,108,312.36h10a44.2,44.2,0,0,1,5.57-3.71c2.22-1.11,11.87-3.34,11.87-3.34s-4.45-13-4.45-18.93,2.6-22.26,8.53-28.2,9.65-14.48,9.28-6.31-6.31,24.86-8.53,26.72-4.83-3.34-5.94,0-.74,12.62.37,16.7,3.34,9.65,3.34,9.65l3.42-1.77,9.2-37.57s9.65-14.84,11.13-18.19,1.12-5.93-3.71-6.68S147,238.51,141.38,245.93Z" style="fill:#8f8f8f"></path><path d="M116.52,316.07s-7.8.74-17.08,12.25-8.9,18.93-8.9,18.93,4.08-.75,8.16-8.54S107.61,322,116.52,316.07Z" style="fill:#8f8f8f"></path><path d="M128.39,307.17s-11.5,8.53-15.59,16.32-3.71,32.29-3.71,33.41V361l3-.37s-.37-24.5,2.23-31.55,12.62-13.73,12.62-13.73Z" style="fill:#8f8f8f"></path><path d="M161.61,296.6s3.82,5.08,1.91,8.26-1.91,5.09-.64,7a31.52,31.52,0,0,1,2.55,6.36,39,39,0,0,0-1.87,6.83c1.2-1,2.28-1.69,2.92-1.69,1.75,0,6.14,1.76,8.33,1.76s4.39-10.53,5.71-13.61-4.83-7.89-4.83-7.89-3.07-12.29-6.58-13.61c0,0,.13,2.15.13,4.06S161.61,296.6,161.61,296.6Z" style="fill:#bfbfbf"></path><polygon points="277.76 169.55 284.89 161.88 289.97 165.7 277.76 169.55" style="fill:#bfbfbf"></polygon><polygon points="84.33 66.57 84.33 161.03 88.95 155.38 88.95 72.2 94.6 70.66 94.6 109.17 96.65 106.6 96.65 69.63 108.97 69.63 108.97 92.74 112.05 92.74 112.05 72.71 115.13 72.71 115.13 191.32 119.75 191.32 119.75 66.57 84.33 66.57" style="fill:#f2f2f2;mix-blend-mode:multiply"></polygon><polygon points="238.89 66.57 238.88 66.57 209.63 66.57 209.63 191.32 213.44 191.32 213.44 72.71 215.99 72.71 215.99 92.74 218.53 92.74 218.53 69.63 228.71 69.63 228.71 106.6 230.41 109.17 230.41 70.66 235.08 72.2 235.08 155.38 238.88 161 238.88 191.32 242.69 191.32 242.69 72.71 245.24 72.71 245.24 92.74 247.78 92.74 247.78 69.63 257.96 69.63 257.96 106.6 259.66 109.17 259.66 70.66 264.32 72.2 264.32 155.38 268.14 161.03 268.14 66.57 238.89 66.57" style="fill:#f2f2f2;mix-blend-mode:multiply"></polygon><rect x="45.12" y="66.57" width="285.52" height="294.29" style="fill:none;stroke:#263238;stroke-miterlimit:10"></rect><rect x="45.12" y="331.35" width="285.52" height="7.09" style="fill:#263238;stroke:#263238;stroke-linecap:round;stroke-linejoin:round"></rect><rect x="34.26" y="326.2" width="306.9" height="8.44" style="fill:#fff;stroke:#263238;stroke-linecap:round;stroke-linejoin:round"></rect><rect x="34.26" y="354.89" width="306.9" height="22.78" style="fill:#fff;stroke:#263238;stroke-linecap:round;stroke-linejoin:round"></rect><rect x="48.85" y="451.07" width="43.87" height="21.93" style="fill:#fff;stroke:#263238;stroke-linecap:round;stroke-linejoin:round"></rect><rect x="280" y="451.07" width="43.87" height="21.93" style="fill:#fff;stroke:#263238;stroke-linecap:round;stroke-linejoin:round"></rect></g><g id="freepik--Character--inject-2"><path d="M380.45,335.78s-1.36,18-3.07,20.07a9.73,9.73,0,0,1-4.76,2.73l.51,5.78s6,2.72,9.7-1.7S389,337.48,389,337.48Z" style="fill:#4c4c4c;stroke:#263238;stroke-linecap:round;stroke-linejoin:round"></path><path d="M382.83,362.66c3.74-4.42,6.12-25.18,6.12-25.18l-3.38-.68c-.7,5-2.42,16.43-4.16,20.92-2,5.3-6.38,5.63-8.39,5.41l.11,1.23S379.09,367.08,382.83,362.66Z" style="fill:#4c4c4c;stroke:#263238;stroke-linecap:round;stroke-linejoin:round"></path><path d="M374,341.22s19.06,2.39,21.1-.34,8.5-81.66,8.5-84-25.17-2-27.56.34-7.48,81.32-7.48,81.32S368.88,340.88,374,341.22Z" style="fill:#263238;stroke:#263238;stroke-linecap:round;stroke-linejoin:round"></path><path d="M395.94,255.29l-9.21,86.89c4,.07,7.53-.2,8.35-1.3,2-2.72,8.5-81.66,8.5-84C403.58,256,400.27,255.47,395.94,255.29Z" style="fill:#263238;stroke:#263238;stroke-linecap:round;stroke-linejoin:round"></path><rect x="325.07" y="409.47" width="7.46" height="43.98" style="fill:#4c4c4c;stroke:#263238;stroke-linecap:round;stroke-linejoin:round"></rect><path d="M332.54,453.45h-7.47l-49,7.8a3.38,3.38,0,0,0-2.86,3.34v1h5.11v-2H379.26v2h5.11v-1a3.38,3.38,0,0,0-2.86-3.34Z" style="fill:#4c4c4c;stroke:#263238;stroke-linecap:round;stroke-linejoin:round"></path><polygon points="330.9 463.95 326.53 463.95 325.07 453.45 332.36 453.45 330.9 463.95" style="fill:#737373;stroke:#263238;stroke-linecap:round;stroke-linejoin:round"></polygon><path d="M326.4,463.66H331a0,0,0,0,1,0,0v8.24a1.09,1.09,0,0,1-1.09,1.09h-2.44a1.09,1.09,0,0,1-1.09-1.09v-8.24A0,0,0,0,1,326.4,463.66Z" style="fill:#263238;stroke:#263238;stroke-linecap:round;stroke-linejoin:round"></path><circle cx="275.71" cy="466.68" r="6.13" style="fill:#263238;stroke:#263238;stroke-linecap:round;stroke-linejoin:round"></circle><path d="M278.57,466.68a2.86,2.86,0,1,1-2.86-2.86A2.86,2.86,0,0,1,278.57,466.68Z" style="fill:#fff;stroke:#263238;stroke-linecap:round;stroke-linejoin:round"></path><circle cx="379.7" cy="466.68" r="6.13" style="fill:#263238;stroke:#263238;stroke-linecap:round;stroke-linejoin:round"></circle><circle cx="379.7" cy="466.68" r="2.86" style="fill:#fff;stroke:#263238;stroke-linecap:round;stroke-linejoin:round"></circle><rect x="319.18" y="359.64" width="19.24" height="55.76" style="fill:#4c4c4c;stroke:#263238;stroke-linecap:round;stroke-linejoin:round"></rect><path d="M274.53,364.36h98.6a6.63,6.63,0,0,0,6.64-6.63h0a6.64,6.64,0,0,0-6.64-6.64h-98.6a6.64,6.64,0,0,0-6.64,6.64h0A6.63,6.63,0,0,0,274.53,364.36Z" style="fill:#263238;stroke:#263238;stroke-linecap:round;stroke-linejoin:round"></path><path d="M355.36,165.64s-3.25,11.21,6.86,14.58,29.39,2.76,34.29,19-21.44,29.39-21.44,34.91,11.94,2.14,13.48,11.63-9.19,25.41-18.37,27.86S354,260.43,346.3,241.45s-13.48-33.37-15.92-49.9S348.62,154.92,355.36,165.64Z" style="fill:#263238;stroke:#263238;stroke-linecap:round;stroke-linejoin:round"></path><path d="M189.53,440A29.21,29.21,0,0,1,178,442.68c-7.14.34-22-3.13-25.06-3.13s-2.38,4.42,0,8.17,15.54,13.33,20,16,8.85,9.19,13.95,8.51,13.95-21.78,13.95-21.78l2.38-4.42Z" style="fill:#263238;stroke:#263238;stroke-linecap:round;stroke-linejoin:round"></path><path d="M176.2,463c-6.55-3.27-15.24-10.48-20-14.95a18,18,0,0,1-5-7.63c-.92,1.45-.1,4.58,1.66,7.35,2.38,3.74,15.54,13.33,20,16s8.85,9.19,13.95,8.51c1.26-.17,2.75-1.58,4.27-3.61A118.67,118.67,0,0,1,176.2,463Z" style="fill:#fff;stroke:#263238;stroke-linecap:round;stroke-linejoin:round"></path><path d="M179.67,450.5l16.53,9.69c2.6-5,4.56-9.69,4.56-9.69l2.38-4.42L189.53,440a24.85,24.85,0,0,1-6.34,2.07c.6.57,1.41,1.81.22,3.72A30.08,30.08,0,0,1,179.67,450.5Z" style="fill:#fff;stroke:#263238;stroke-linecap:round;stroke-linejoin:round"></path><path d="M283.81,315.05s-48,22.12-53.08,27.22-43.92,98-43.92,98l20.08,16.33,47-95.64,66-16.33L293.34,312Z" style="fill:#263238;stroke:#263238;stroke-linecap:round;stroke-linejoin:round"></path><path d="M291,445.54s.68,1.71-2,4.09S272.58,463.58,268.84,466s-2,5.78,1.7,6.46,15.65-.34,21.78-2.72,22.12-6.46,22.46-8.5S309,444.86,309,444.86Z" style="fill:#fff;stroke:#263238;stroke-linecap:round;stroke-linejoin:round"></path><path d="M270.54,472.42c3.75.69,15.65-.34,21.78-2.72s22.12-6.46,22.46-8.5c.19-1.18-1.75-6.4-3.43-10.63l-17.67,5.18a27.83,27.83,0,0,0-.68-5.44c-.68-3.06-4.08-.68-4.08-.68-2.73,2.38-16.34,13.95-20.08,16.33S266.8,471.74,270.54,472.42Z" style="fill:#263238;stroke:#263238;stroke-linecap:round;stroke-linejoin:round"></path><path d="M314.78,461.2a13.2,13.2,0,0,0-1-4c-6.74,3-24.78,11.39-35.48,12.6-6.28.72-9.68.34-11.52-.25.3,1.35,1.71,2.51,3.72,2.87,3.75.69,15.65-.34,21.78-2.72S314.44,463.24,314.78,461.2Z" style="fill:#fff;stroke:#263238;stroke-linecap:round;stroke-linejoin:round"></path><path d="M291.64,317.43c-1.36.34-52.06,26.55-52.4,29.27a18.17,18.17,0,0,0,1,7.48c.68,2.38,33.69,93.75,33.69,93.75l35.72-2.05s-18-61.41-22.46-71.62-7.14-18.38-7.14-18.38l39.6-3.66-2.51-19.13Z" style="fill:#263238;stroke:#263238;stroke-linecap:round;stroke-linejoin:round"></path><path d="M241.9,180.92s-3.82,11.27-2.61,12.08,4.41-1.83,5.82-6.05,3-7,1.63-8.85S241.9,180.92,241.9,180.92Z" style="fill:#263238;stroke:#263238;stroke-linecap:round;stroke-linejoin:round"></path><path d="M243,177.86S235,188.53,236,190.14s7.65-3.22,10.07-6.44S247.24,176.25,243,177.86Z" style="fill:#263238;stroke:#263238;stroke-linecap:round;stroke-linejoin:round"></path><path d="M257.44,207.37s-1.34-8-1.07-9.07,6.4-17.34,6.4-18.67-15.74-6.94-16.54-6.94-10,11.32-9.44,12.92,8.11-3.31,8.11-3.31S243,193.77,243,196.7s3.2,7.47,3.2,7.47,2.14,10.41,2.14,9.61S257.44,207.37,257.44,207.37Z" style="fill:#263238;stroke:#263238;stroke-linecap:round;stroke-linejoin:round"></path><polygon points="234.21 170.46 275 185.26 274.43 186.77 232.92 173.19 234.21 170.46" style="fill:#fff;stroke:#263238;stroke-linecap:round;stroke-linejoin:round"></polygon><polygon points="232.92 173.19 237.88 174.81 238.9 172.16 234.21 170.46 232.92 173.19" style="fill:#fff;stroke:#263238;stroke-linecap:round;stroke-linejoin:round"></polygon><path d="M255.54,184.28s-6.24-7.65-8-9.26-6.85-1-8.26-1-1.61,3.62-.6,4.23,6.85,2,6.85,2-2.82,10.47-2.22,14.5,7.45,4,7.45,4" style="fill:#263238;stroke:#263238;stroke-linecap:round;stroke-linejoin:round"></path><path d="M314.33,197.55l-1.16.82c-5.1,3.59-25.21,17.93-25.5,20.85-.34,3.33-1.34,15.66-1.34,17s-9,12-9,12l-19.66-43.34L244,214.55s16.33,52.67,19.33,59.67,6.34,8,8,7S292,268.55,292,268.55l5.67,30.67s2,7-1,8.66-14.34,7.67-14.34,7.67,23,21.33,29.34,28.33,8,8.34,8,8.34,38.33,0,46-1.34,15.33-16.33,14-31.66-10.34-42.67-10.34-44.34-9.66-51.66-18.33-61.33-16.67-14.67-27.33-16" style="fill:#fff;stroke:#263238;stroke-linecap:round;stroke-linejoin:round"></path><path d="M329,242.55l-8.33-3.67,6.66-3.66,8.3-34.12a36.37,36.37,0,0,0-12-3.55h-9.34l-1.16.82c-1.91,1.34-5.91,4.18-10.19,7.37l-9.31,32.14,5.33,3.67-5.67,5.33,14,51.34,3.67-2Z" style="fill:#fff;stroke:#263238;stroke-linecap:round;stroke-linejoin:round"></path><path d="M309,200.55a146.52,146.52,0,0,0-6.67,39.67c-.33,21,4.67,56.33,4.67,56.33l2.33-2.33s4.67-56,10.67-71.67,10.67-24,10.67-24l-8.34-3.33S315,192.22,309,200.55Z" style="fill:#263238;stroke:#263238;stroke-linecap:round;stroke-linejoin:round"></path><path d="M273.37,265.8c0,.84.05,1.7.13,2.58" style="fill:none;stroke:#263238;stroke-linecap:round;stroke-linejoin:round"></path><path d="M277.33,248.22a37.23,37.23,0,0,0-3.81,13.63" style="fill:none;stroke:#263238;stroke-linecap:round;stroke-linejoin:round"></path><path d="M274,249.88s-5,4-5,12.5" style="fill:none;stroke:#263238;stroke-linecap:round;stroke-linejoin:round"></path><line x1="292" y1="268.55" x2="288.67" y2="237.22" style="fill:none;stroke:#263238;stroke-linecap:round;stroke-linejoin:round"></line><path d="M356.86,331.28q.78,1.73,1.47,3.6" style="fill:none;stroke:#263238;stroke-linecap:round;stroke-linejoin:round"></path><path d="M324.33,302.55a50.66,50.66,0,0,1,30.09,23.9" style="fill:none;stroke:#263238;stroke-linecap:round;stroke-linejoin:round"></path><path d="M335,303.55s17.67,3,24.67,16.33" style="fill:none;stroke:#263238;stroke-linecap:round;stroke-linejoin:round"></path><path d="M349.14,304.71a11.56,11.56,0,0,1,2.86,1.84" style="fill:none;stroke:#263238;stroke-linecap:round;stroke-linejoin:round"></path><path d="M342.67,302.88a23.88,23.88,0,0,1,3.24.66" style="fill:none;stroke:#263238;stroke-linecap:round;stroke-linejoin:round"></path><path d="M289,298.22s-19-.67-20.33-1.34-6.67,9.67-7,10.67,10,3.33,13.33,3.33,12.67-3,12.67-3h5Z" style="fill:#263238;stroke:#263238;stroke-linecap:round;stroke-linejoin:round"></path><path d="M333.3,220.41s-3.68,5.89-3.68,12.14,7,37.5,7,37.5-2.21.74-2.21,2.58v1.84L287,298.37l5.14,15.81s37.51-10.67,51.85-14S366,294,366.39,289.91s-9.56-56.26-11-63.25-4.41-10.29-8.46-12.87" style="fill:#fff;stroke:#263238;stroke-linecap:round;stroke-linejoin:round"></path><path d="M270.67,298.55S265.1,311.47,260,313.21c-7,2.41-21.17,3.6-25.57-4.18-7.62-13.48,14.8-21.93,24.9-20.15C273.18,291.33,270.67,298.55,270.67,298.55Z" style="fill:#fff;stroke:#263238;stroke-linecap:round;stroke-linejoin:round"></path><path d="M257.2,293.48c0,1-1.69,1.84-3.78,1.84s-3.79-.82-3.79-1.84,1.69-1.83,3.79-1.83S257.2,292.47,257.2,293.48Z" style="fill:#d1d1d1"></path><path d="M251,299.57c0,1.33-2.67,2.41-6,2.41s-6-1.08-6-2.41,2.68-2.41,6-2.41S251,298.24,251,299.57Z" style="fill:#d1d1d1"></path><path d="M247.56,307.26c0,.63-1.23,1.15-2.75,1.15s-2.76-.52-2.76-1.15,1.23-1.15,2.76-1.15S247.56,306.63,247.56,307.26Z" style="fill:#8a8a8a"></path><ellipse cx="255.83" cy="303.93" rx="4.59" ry="2.87" style="fill:#8a8a8a"></ellipse><path d="M282,299.22s-8.67-4-11-5-9,1.33-11.33,1-3,3-1.34,4,10.34.66,10.34.66l4.33,1.67" style="fill:#263238;stroke:#263238;stroke-linecap:round;stroke-linejoin:round"></path><path d="M308.64,208.69s-.92-11.63-1.84-14.38-5.2-3.37-5.2-3.37a47.86,47.86,0,0,0-5.21,2.75,4.13,4.13,0,0,1-6.12-2.45c-.61-2.45,0-17.14,0-17.14a49.89,49.89,0,0,1-4.9-2.76c-1.22-.92,4.29-5.51,5.51-7s.31-4.59.31-6.73,5.81-11,5.81-11,2.45-1.53,12.86-.61,15.62,15.62,16.23,28.47,1.84,29.09,1.84,29.09" style="fill:#fff;stroke:#263238;stroke-linecap:round;stroke-linejoin:round"></path><path d="M308.64,208.69l19.29-5.2s-.56-7.4-1.11-16.15l-19.72,8.15C307.91,199.44,308.64,208.69,308.64,208.69Z" style="fill:#263238;stroke:#263238;stroke-linecap:round;stroke-linejoin:round"></path><path d="M320,173.55s-3,5-5.67,4.33l-2.66-.66a13,13,0,0,1-4.67,6.66" style="fill:none;stroke:#263238;stroke-linecap:round;stroke-linejoin:round"></path><path d="M306.19,125.11s-4.29,2.76-7.35.62-11,.3-13.78,8,1.23,16.83,8.27,18.06,10.41-.31,14.39,4.29.92,9.18,2.76,10.1,4-6.12,8.87-2.76,0,10.41-3.06,15.62-7.35,23,4.29,27.86,16.53-1.53,26.33-20.51,12.55-30.62,5.51-43.79-23.88-23.88-34.6-23.88S306.19,125.11,306.19,125.11Z" style="fill:#263238;stroke:#263238;stroke-linecap:round;stroke-linejoin:round"></path><rect x="277.41" y="156.97" width="29.08" height="10.99" transform="translate(-38.25 111.52) rotate(-20.32)" style="fill:#263238;stroke:#263238;stroke-linecap:round;stroke-linejoin:round"></rect><rect x="300.37" y="155.42" width="57.83" height="6.74" style="fill:#263238;stroke:#263238;stroke-linecap:round;stroke-linejoin:round"></rect><circle cx="302.52" cy="158.48" r="1.22" style="fill:#fff;stroke:#263238;stroke-linecap:round;stroke-linejoin:round"></circle></g></svg>
