<?xml version="1.0" standalone="no"?>
<svg xmlns:xlink="http://www.w3.org/1999/xlink" id="wave" style="transform:rotate(180deg); transition: 0.3s" viewBox="0 0 1440 160" version="1.1" xmlns="http://www.w3.org/2000/svg"><defs><linearGradient id="sw-gradient-0" x1="0" x2="0" y1="1" y2="0"><stop stop-color="rgba(13, 13, 13, 1)" offset="0%"/><stop stop-color="rgba(13, 13, 13, 1)" offset="100%"/></linearGradient></defs><path style="transform:translate(0, 0px); opacity:1" fill="url(#sw-gradient-0)" d="M0,48L80,56C160,64,320,80,480,74.7C640,69,800,43,960,29.3C1120,16,1280,16,1440,37.3C1600,59,1760,101,1920,104C2080,107,2240,69,2400,48C2560,27,2720,21,2880,21.3C3040,21,3200,27,3360,42.7C3520,59,3680,85,3840,96C4000,107,4160,101,4320,88C4480,75,4640,53,4800,61.3C4960,69,5120,107,5280,120C5440,133,5600,123,5760,109.3C5920,96,6080,80,6240,77.3C6400,75,6560,85,6720,85.3C6880,85,7040,75,7200,66.7C7360,59,7520,53,7680,42.7C7840,32,8000,16,8160,18.7C8320,21,8480,43,8640,64C8800,85,8960,107,9120,112C9280,117,9440,107,9600,104C9760,101,9920,107,10080,112C10240,117,10400,123,10560,120C10720,117,10880,107,11040,85.3C11200,64,11360,32,11440,16L11520,0L11520,160L11440,160C11360,160,11200,160,11040,160C10880,160,10720,160,10560,160C10400,160,10240,160,10080,160C9920,160,9760,160,9600,160C9440,160,9280,160,9120,160C8960,160,8800,160,8640,160C8480,160,8320,160,8160,160C8000,160,7840,160,7680,160C7520,160,7360,160,7200,160C7040,160,6880,160,6720,160C6560,160,6400,160,6240,160C6080,160,5920,160,5760,160C5600,160,5440,160,5280,160C5120,160,4960,160,4800,160C4640,160,4480,160,4320,160C4160,160,4000,160,3840,160C3680,160,3520,160,3360,160C3200,160,3040,160,2880,160C2720,160,2560,160,2400,160C2240,160,2080,160,1920,160C1760,160,1600,160,1440,160C1280,160,1120,160,960,160C800,160,640,160,480,160C320,160,160,160,80,160L0,160Z"/></svg>